HIERARCHY
ROOT Hips
{
	OFFSET 0.000000 0.000000 0.000000
	CHANNELS 6 Xposition Yposition Zposition Zrotation Yrotation Xrotation 
	JOINT LeftUpLeg_virtual
	{
		OFFSET 0.000000 0.000000 0.000000
		CHANNELS 3 Zrotation Yrotation Xrotation
		JOINT LeftUpLeg
		{
			OFFSET 10.205400 -3.823500 0.155100
			CHANNELS 3 Zrotation Yrotation Xrotation
			JOINT LeftLeg
			{
				OFFSET 0.708757 -12.982077 0.567790
				CHANNELS 3 Zrotation Yrotation Xrotation
				JOINT LeftFoot
				{
					OFFSET -0.708756 -10.717838 -2.184338
					CHANNELS 3 Zrotation Yrotation Xrotation
					JOINT LeftToeBase
					{
						OFFSET 0.108149 -7.191104 7.560241
						CHANNELS 3 Zrotation Yrotation Xrotation
						JOINT LeftToe_End
						{
							OFFSET 0.070230 0.081724 4.490308
							CHANNELS 3 Zrotation Yrotation Xrotation
							End Site
							{
								OFFSET 0.000000 0.000000 0.000000
							}
						}
					}
				}
			}
		}
	}
	JOINT RightUpLeg_virtual
	{
		OFFSET 0.000000 0.000000 0.000000
		CHANNELS 3 Zrotation Yrotation Xrotation
		JOINT RightUpLeg
		{
			OFFSET -10.205400 -3.823500 0.005500
			CHANNELS 3 Zrotation Yrotation Xrotation
			JOINT RightLeg
			{
				OFFSET -0.708756 -12.982134 0.610632
				CHANNELS 3 Zrotation Yrotation Xrotation
				JOINT RightFoot
				{
					OFFSET 0.708754 -10.717769 -1.945823
					CHANNELS 3 Zrotation Yrotation Xrotation
					JOINT RightToeBase
					{
						OFFSET -0.108140 -7.191069 7.372968
						CHANNELS 3 Zrotation Yrotation Xrotation
						JOINT RightToe_End
						{
							OFFSET -0.070227 0.081735 4.479403
							CHANNELS 3 Zrotation Yrotation Xrotation
							End Site
							{
								OFFSET 0.000000 0.000000 0.000000
							}
						}
					}
				}
			}
		}
	}
	JOINT Spine_virtual
	{
		OFFSET 0.000000 0.000000 0.000000
		CHANNELS 3 Zrotation Yrotation Xrotation
		JOINT Spine
		{
			OFFSET 0.000000 6.876099 0.125700
			CHANNELS 3 Zrotation Yrotation Xrotation
			JOINT Spine1
			{
				OFFSET 0.000000 5.730043 0.104720
				CHANNELS 3 Zrotation Yrotation Xrotation
				JOINT Spine1_split
				{
					OFFSET 0.000000 5.730043 0.104720
					CHANNELS 3 Zrotation Yrotation Xrotation
					JOINT Spine2
					{
						OFFSET 0.000000 5.730043 0.104720
						CHANNELS 3 Zrotation Yrotation Xrotation
						JOINT Neck_virtual
						{
							OFFSET 0.000000 0.000000 0.000000
							CHANNELS 3 Zrotation Yrotation Xrotation
							JOINT Neck
							{
								OFFSET 0.000000 10.314075 0.188496
								CHANNELS 3 Zrotation Yrotation Xrotation
								JOINT Head
								{
									OFFSET 0.000000 7.643700 -2.377400
									CHANNELS 3 Zrotation Yrotation Xrotation
									JOINT HeadTop_End
									{
										OFFSET 0.000000 43.788605 -13.619600
										CHANNELS 3 Zrotation Yrotation Xrotation
										End Site
										{
											OFFSET 0.000000 0.000000 0.000000
										}
									}
								}
							}
						}
						JOINT LeftShoulder_virtual
						{
							OFFSET 0.000000 0.000000 0.000000
							CHANNELS 3 Zrotation Yrotation Xrotation
							JOINT LeftShoulder
							{
								OFFSET 2.196100 4.412489 0.087492
								CHANNELS 3 Zrotation Yrotation Xrotation
								JOINT LeftShoulder_split
								{
									OFFSET 2.196100 4.412489 0.087492
									CHANNELS 3 Zrotation Yrotation Xrotation
									JOINT LeftArm
									{
										OFFSET 8.771219 -2.981674 -0.026999
										CHANNELS 3 Zrotation Yrotation Xrotation
										JOINT LeftForeArm
										{
											OFFSET 8.512804 0.000000 -0.000000
											CHANNELS 3 Zrotation Yrotation Xrotation
											JOINT LeftHand
											{
												OFFSET 18.484802 0.000000 -0.000000
												CHANNELS 3 Zrotation Yrotation Xrotation
												End Site
												{
													OFFSET 0.000000 0.000000 0.000000
												}
											}
										}
									}
								}
							}
						}
						JOINT RightShoulder_virtual
						{
							OFFSET 0.000000 0.000000 0.000000
							CHANNELS 3 Zrotation Yrotation Xrotation
							JOINT RightShoulder
							{
								OFFSET -2.196100 4.412496 0.070690
								CHANNELS 3 Zrotation Yrotation Xrotation
								JOINT RightShoulder_split
								{
									OFFSET -2.196100 4.412496 0.070690
									CHANNELS 3 Zrotation Yrotation Xrotation
									JOINT RightArm
									{
										OFFSET -8.771282 -2.981682 -0.094208
										CHANNELS 3 Zrotation Yrotation Xrotation
										JOINT RightForeArm
										{
											OFFSET -8.494598 0.000000 0.000000
											CHANNELS 3 Zrotation Yrotation Xrotation
											JOINT RightHand
											{
												OFFSET -18.483803 0.000000 0.000001
												CHANNELS 3 Zrotation Yrotation Xrotation
												End Site
												{
													OFFSET 0.000000 0.000000 0.000000
												}
											}
										}
									}
								}
							}
						}
					}
				}
			}
		}
	}
}
MOTION
Frames: 7
Frame Time: 0.033333
2.537299 24.285666 56.861736 -0.256093 -0.780862 0.742101 -0.328229 -3.043648 4.000454 35.314230 26.994125 50.039069 0.662194 11.360452 27.869550 -36.288081 4.045268 -53.971660 -6.473619 -7.257714 -12.959025 0.000000 0.000000 0.000000 -2.643745 -4.146945 6.170746 -12.005880 -4.905293 -76.098034 1.575041 -7.056935 53.764363 25.694502 -1.615518 6.469725 -24.158997 6.418777 5.508256 0.000000 0.000000 0.000000 -0.053251 -1.247901 2.218096 3.384756 -11.988070 1.232789 -1.064760 -5.958947 2.572296 0.229349 -0.933793 0.132668 -0.018491 0.115557 0.031825 0.679202 -5.122496 5.820826 11.161486 17.298824 15.169191 -0.615353 12.862254 3.145254 0.000000 0.000000 0.000000 -0.209735 -5.748955 4.495615 -11.397556 -12.494556 4.477986 -7.679446 -0.427257 -4.246457 3.130631 -31.582781 -57.179666 22.743388 -51.456439 -31.520490 0.000000 0.000000 0.000000 0.397551 -6.494330 3.982202 -14.232546 0.452146 -0.678754 -3.216188 -8.735325 -10.252627 23.964598 55.729884 -13.723611 -0.160652 3.545220 5.171242 0.000000 0.000000 0.000000 
2.240228 24.252192 58.148525 -0.409928 -0.214737 0.531197 -1.879722 -8.487735 5.139270 37.592538 28.239284 54.010595 -1.282351 12.402971 21.380034 -32.148614 6.743884 -47.144810 -5.222296 -8.832650 -22.938208 0.000000 0.000000 0.000000 -4.529417 -9.401024 7.247477 -10.584179 1.555405 -75.310403 -1.343287 -9.767722 56.822400 21.264218 -3.318058 0.298612 -24.795619 6.273762 8.150377 0.000000 0.000000 0.000000 -1.686782 -6.669914 3.530248 4.968991 -13.473972 0.952689 -0.929206 -8.869584 3.437144 0.097237 -1.051892 -0.003125 -0.029865 -0.007250 -0.002247 1.117799 -8.001272 6.254397 10.165230 20.224701 11.578053 1.760958 20.517181 8.867448 0.000000 0.000000 0.000000 -0.329032 -8.747753 4.790912 -14.900628 -20.716022 5.774711 -6.018906 -1.411590 -3.517280 6.911321 -36.451716 -48.198644 8.742537 -40.123075 -15.930494 0.000000 0.000000 0.000000 0.968493 -9.300733 4.437525 -6.523675 -3.952659 -0.157801 -3.538813 -7.625385 -7.910080 22.309636 43.158026 -9.338016 1.506291 -3.984764 2.971465 0.000000 0.000000 0.000000 
2.026113 24.255413 59.457623 -0.337505 -0.024834 0.067894 -4.030909 -13.961413 7.267046 40.091913 28.771110 54.701028 -3.735279 12.767138 19.140169 -28.014753 10.794504 -36.126059 -5.450281 -9.772770 -30.382324 0.000000 0.000000 0.000000 -5.910827 -14.115028 8.471578 -9.547505 6.341256 -74.728594 -2.940262 -10.703463 60.037376 18.705013 -4.643722 -2.073419 -24.632705 6.143242 10.406704 0.000000 0.000000 0.000000 -3.542773 -11.541064 5.840218 6.231752 -14.305954 0.685526 -0.946536 -10.964612 4.160809 -0.030279 -0.891199 -0.054510 0.019168 0.009188 0.001546 1.426710 -10.224097 6.677700 9.006246 22.422150 7.222367 3.535737 26.161064 12.980766 0.000000 0.000000 0.000000 -0.332325 -10.901026 4.881328 -17.116239 -27.549105 7.113807 -4.145836 -2.453311 -2.462303 7.111143 -40.394873 -39.115906 1.233804 -29.830295 -5.084841 0.000000 0.000000 0.000000 1.501899 -11.373692 4.390149 -0.132542 -7.351170 -0.464036 -3.645463 -6.392474 -5.942958 19.121632 32.620973 -7.322432 2.893443 -3.756321 0.531896 0.000000 0.000000 0.000000 
1.902183 24.264313 60.866524 -0.160829 -0.123186 -0.143934 -6.679667 -19.353119 9.449307 42.540423 28.412832 51.985731 -6.522461 12.714510 22.561669 -23.228008 15.692192 -23.776684 -8.061047 -10.305295 -31.303242 0.000000 0.000000 0.000000 -7.678393 -18.872957 9.672741 -8.328132 9.909978 -74.460981 -2.922795 -10.838018 62.158280 19.239063 -5.000087 -2.829480 -24.214790 7.177013 17.146614 0.000000 0.000000 0.000000 -5.586014 -16.140002 8.630132 7.076081 -14.239920 0.569000 -1.034325 -12.357756 4.590434 0.063551 -0.579774 -0.067828 0.000758 0.023602 -0.019334 1.434103 -11.648674 7.011987 7.772613 24.080834 2.537023 4.287454 30.262786 14.695388 0.000000 0.000000 0.000000 -0.448920 -12.281770 4.608826 -17.845720 -32.491220 8.246716 -2.552185 -3.038116 -0.866815 4.892456 -43.411590 -33.278758 -2.492316 -22.975836 3.632572 0.000000 0.000000 0.000000 1.845139 -12.630476 4.085487 4.797657 -9.256317 -1.133754 -3.594065 -5.280924 -3.781256 14.941681 24.582769 -7.278572 3.715619 1.468727 -2.317578 0.000000 0.000000 0.000000 
1.856817 24.302168 62.353313 -0.154925 0.128316 -0.055317 -9.449285 -24.986215 11.724040 45.094791 27.939724 46.216878 -8.877935 13.472999 30.805666 -17.545955 19.858857 -14.006258 -12.160940 -10.423318 -27.466923 0.000000 0.000000 0.000000 -9.312415 -23.557794 10.766402 -6.482953 11.732694 -72.834979 -2.339002 -10.981638 63.255830 20.333031 -4.899874 -3.659594 -22.368911 6.073988 17.016385 0.000000 0.000000 0.000000 -7.850158 -20.945117 11.467382 7.814145 -13.503415 0.678886 -1.045309 -13.030170 4.611058 0.173473 -0.189192 -0.007585 0.005150 0.052594 -0.015849 1.249832 -12.347612 6.972908 6.732360 24.987195 -1.855540 3.584567 32.669092 13.855000 0.000000 0.000000 0.000000 -0.695212 -13.071000 4.007167 -17.454962 -35.693920 8.942452 -1.337543 -2.776621 0.413750 1.408319 -45.740742 -31.643218 -4.276205 -19.173048 11.596108 0.000000 0.000000 0.000000 2.012067 -13.233258 3.518958 8.152344 -9.674205 -1.939692 -3.169384 -4.924436 -1.667730 10.111569 18.947626 -8.512186 3.829921 8.798178 -5.306072 0.000000 0.000000 0.000000 
1.864923 24.477631 63.963100 -0.159638 0.126851 -0.086149 -12.419439 -29.201183 13.970195 47.640474 26.737083 37.406655 -10.622343 13.974836 42.910506 -13.689631 22.103988 -8.070908 -15.811085 -10.198149 -24.426698 0.000000 0.000000 0.000000 -12.119541 -27.551158 12.442042 -4.565659 13.212555 -68.882594 -1.568777 -12.923337 61.443897 23.352710 -4.377961 -5.864287 -17.992258 -2.551136 18.710308 0.000000 0.000000 0.000000 -10.427325 -25.764734 14.108059 8.113634 -12.263098 1.166367 -0.950462 -13.180386 4.308552 0.187926 0.093505 0.155424 0.011073 -0.034959 -0.012763 1.030127 -12.375701 6.488216 5.931206 25.398938 -5.323764 1.765664 34.039822 11.067095 0.000000 0.000000 0.000000 -0.965456 -13.043968 3.140665 -16.031397 -37.007802 9.242673 -0.096693 -1.882782 1.853634 -1.129978 -48.411199 -34.685196 -4.681175 -17.034155 18.452919 0.000000 0.000000 0.000000 2.206544 -12.983484 2.779451 10.013225 -8.837909 -2.240106 -2.478034 -5.158130 0.377795 5.130920 15.108829 -10.952695 3.204312 15.091873 -8.163352 0.000000 0.000000 0.000000 
1.840571 24.844997 65.727020 -0.252961 0.047370 -0.178467 -14.961779 -32.399880 15.742877 49.924182 25.369483 26.542095 -11.732337 13.205183 55.885977 -12.403349 22.188880 -5.444425 -17.621289 -10.236086 -25.774945 0.000000 0.000000 0.000000 -14.746447 -31.091465 14.133266 -1.715074 13.311568 -62.965041 0.145073 -13.865254 58.297816 21.883173 -2.527851 -8.950143 -21.492167 -2.843334 20.420589 0.000000 0.000000 0.000000 -12.809630 -30.208807 16.152699 7.886902 -10.758930 1.907436 -0.677354 -12.799405 3.668130 0.232583 0.363782 0.251703 0.025870 0.013236 -0.064335 0.907290 -12.172962 5.488193 5.499009 25.193875 -7.155156 -0.774574 33.732160 7.317995 0.000000 0.000000 0.000000 -1.185155 -12.777060 2.396143 -13.977787 -36.978945 9.255529 1.006988 -0.782256 2.550189 -0.694695 -52.018984 -41.361635 -4.238836 -14.538051 23.227628 0.000000 0.000000 0.000000 2.491948 -12.416484 2.002241 10.602124 -7.511232 -2.566259 -2.026820 -6.076546 2.558746 0.641460 12.612887 -15.179112 2.334538 18.912792 -10.509902 0.000000 0.000000 0.000000 
